{"title":"Pitbull feat. G.R.L. - Wild Wild Love HD 720p x264 AAC E-Subs [G","uid":9860032,"size":61712083,"categoryP":"video","categoryS":"music_videos","magnet":"?xt=urn:btih:97295fb2484c48351496d0ac30896e2ce7511c8f&amp;dn=Pitbull+feat.+G.R.L.+-+Wild+Wild+Love+HD+720p+x264+AAC+E-Subs+%5BG&amp;tr=udp%3A%2F%2Ftracker.openbittorrent.com%3A80&amp;tr=udp%3A%2F%2Fopen.demonii.com%3A1337&amp;tr=udp%3A%2F%2Ftracker.coppersurfer.tk%3A6969&amp;tr=udp%3A%2F%2Fexodus.desync.com%3A6969","seeders":1,"leechers":0,"uploader":"canc232","files":1,"time":1396281381,"description":"Pitbull feat. G.R.L. - Wild Wild Love HD 720p x264 AAC E-Subs [GWC] \n\n\nCOVER : &lt;a href=&quot;\nhttp://i.imgur.com/HP4TsTE.jpg&quot; rel=&quot;nofollow&quot; target=&quot;_NEW&quot;&gt;\nhttp://i.imgur.com/HP4TsTE.jpg&lt;/a&gt;\n\n\nTHUMBNAIL IMAGE : &lt;a href=&quot;\nhttp://img46.imageshack.us/img46/6669/7le9.jpg&quot; rel=&quot;nofollow&quot; target=&quot;_NEW&quot;&gt;\nhttp://img46.imageshack.us/img46/6669/7le9.jpg&lt;/a&gt;\n\n\nMEDIA INFO :\nGeneral \nFormat : MPEG-4 \nFormat profile : Base Media \nFile size : 58.9 MiB \nDuration : 3mn 58s \nOverall bit rate mode : Variable \nOverall bit rate : 2 073 Kbps \n\nVideo \nFormat : AVC \nFormat profile : &lt;a class=&quot;__cf_email__&quot; href=&quot;/cdn-cgi/l/email-protection&quot; data-cfemail=&quot;82cfe3ebecc2ceb1acb3&quot;&gt;[email&amp;#160;protected]&lt;/a&gt;&lt;script cf-hash='f9e31' type=&quot;text/javascript&quot;&gt;\n/* &lt;![CDATA[ */!function(){try{var t=&quot;currentScript&quot;in document?document.currentScript:function(){for(var t=document.getElementsByTagName(&quot;script&quot;),e=t.length;e--;)if(t[e].getAttribute(&quot;cf-hash&quot;))return t[e]}();if(t&amp;&amp;t.previousSibling){var e,r,n,i,c=t.previousSibling,a=c.getAttribute(&quot;data-cfemail&quot;);if(a){for(e=&quot;&quot;,r=parseInt(a.substr(0,2),16),n=2;a.length-n;n+=2)i=parseInt(a.substr(n,2),16)^r,e+=String.fromCharCode(i);e=document.createTextNode(e),c.parentNode.replaceChild(e,c)}}}catch(u){}}();/* ]]&gt; */&lt;/script&gt; \nFormat settings, CABAC : Yes \nFormat settings, ReFrames : 3 frames \nDuration : 3mn 57s \nBit rate : 1 994 Kbps \nMaximum bit rate : 4 360 Kbps \nWidth : 1 280 pixels \nHeight : 720 pixels \nDisplay aspect ratio : 16:9 \nFrame rate : 23.976 fps \nStream size : 56.3 MiB (96%) \nTitle : Pitbull feat. G.R.L. - Wild Wild Love HD 720p x264 AAC E-Subs [GWC] \n\nAudio \nID : 2 \nFormat : AAC \nFormat profile : LC \nDuration : 3mn 57s \nBit rate mode : Variable \nChannel(s) : 2 channels \nSampling rate : 48.0 KHz \nStream size : 2.40 MiB (4%) \nLanguage : English \n\nText \nFormat : Timed Text \nStream size : 2.73 KiB (0%) \nTitle : English Subtitle by Bieber \nLanguage : English ","torrent":{"xt":"urn:btih:97295fb2484c48351496d0ac30896e2ce7511c8f","amp;dn":"Pitbull+feat.+G.R.L.+-+Wild+Wild+Love+HD+720p+x264+AAC+E-Subs+%5BG","amp;tr":["udp%3A%2F%2Ftracker.openbittorrent.com%3A80","udp%3A%2F%2Fopen.demonii.com%3A1337","udp%3A%2F%2Ftracker.coppersurfer.tk%3A6969","udp%3A%2F%2Fexodus.desync.com%3A6969"],"infoHash":"97295fb2484c48351496d0ac30896e2ce7511c8f","infoHashBuffer":{"type":"Buffer","data":[151,41,95,178,72,76,72,53,20,150,208,172,48,137,110,44,231,81,28,143]},"announce":[],"urlList":[]}}